<mxfile host="app.diagrams.net" modified="2024-01-19T06:12:54.593Z" agent="Mozilla/5.0 (X11; Linux x86_64) AppleWebKit/537.36 (KHTML, like Gecko) Chrome/120.0.0.0 Safari/537.36" version="22.1.15" etag="ICeNgtK7tar8Q1JmLriH" type="github">
  <diagram name="Page-1" id="XdKM4T_86rwSwpMaFFB6">
    <mxGraphModel>
      <root>
        <mxCell id="0" />
        <mxCell id="1" parent="0" />
      </root>
    </mxGraphModel>
  </diagram>
</mxfile>
